<?xml version="1.0" encoding="utf-8"?>
<!-- Generator: Adobe Illustrator 23.0.4, SVG Export Plug-In . SVG Version: 6.00 Build 0)  -->
<svg version="1.1" id="Layer_1" xmlns="http://www.w3.org/2000/svg" xmlns:xlink="http://www.w3.org/1999/xlink" x="0px"
  y="0px" viewBox="0 0 300 200" style="enable-background:new 0 0 300 200;" xml:space="preserve">
  <style type="text/css">
    .st17 {
      clip-path: url(#SVGID_34_);
    }

    .st18 {
      clip-path: url(#SVGID_36_);
    }
  </style>
  <g>
    <defs>
      <path id="SVGID_33_" d="M240.04,117.05c-0.45,0.11-1.49,0.23-2.06,0.23h-17.59v-15.65h17.59c0.57,0,1.61,0.11,2.06,0.22
			c3.45,0.68,6.22,3.69,6.22,7.6C246.26,113.47,243.5,116.38,240.04,117.05z M220.39,78.37h15.99c0.57,0,1.37,0.11,1.73,0.11
			c3.33,0.56,6.08,3.24,6.08,7.15c0,3.91-2.75,6.49-6.08,7.04c-0.35,0.11-1.16,0.11-1.73,0.11h-15.99V78.37z M254.64,97.38v-0.33
			c8.96-1.23,13.91-6.93,13.91-13.52c0-8.5-7.24-13.42-17.01-13.87c-0.69,0-1.94-0.11-2.98-0.11h-52.3v57h56.43
			c11.14,0,19.42-5.81,19.42-14.86C272.12,103.42,264.53,98.05,254.64,97.38z M111.89,98.05c0,16.21,11.5,31.74,51.94,29.96
			c0,0,11.61-0.45,23.91-3.47v-12.63c-5.97,3.02-13.56,5.92-22.99,6.6c-16.54,1.22-26.42-6.6-26.42-20.46
			c0-13.86,9.89-21.68,26.42-20.46c9.43,0.68,16.91,3.47,22.99,6.49V71.56c-12.3-3.02-23.91-3.47-23.91-3.47
			C123.39,66.31,111.89,81.85,111.89,98.05z M79.49,103.97c0,8.38-5.86,14.64-16.44,14.64c-8.96,0-17.81-2.57-26.32-6.59v12.51
			c13.79,3.69,31.27,3.69,31.27,3.69c29.19,0,37.7-10.84,37.7-24.26V69.55H79.49V103.97z M276.58,169.91
			c0,5.36-4.66,9.89-10.17,9.89H36.39c-5.51,0-10.17-4.53-10.17-9.89V30.1c0-5.36,4.66-9.89,10.17-9.89h230.02
			c5.51,0,10.17,4.53,10.17,9.89V169.91z M279.53,17.35c-3.53-3.43-8.19-5.32-13.11-5.32H36.39c-4.93,0-9.58,1.89-13.11,5.32
			c-3.53,3.43-5.47,7.96-5.47,12.75v139.81c0,4.79,1.94,9.32,5.47,12.75c3.53,3.43,8.19,5.32,13.11,5.32h230.02
			c4.93,0,9.58-1.89,13.11-5.32c3.53-3.43,5.47-7.96,5.47-12.75V30.1C285,25.31,283.06,20.79,279.53,17.35z" />
    </defs>
    <clipPath id="SVGID_34_">
      <use xlink:href="#SVGID_33_" style="overflow:visible;" />
    </clipPath>
    <g class="st17">
      <defs>
        <rect id="SVGID_35_" x="-6305.33" y="-2155.79" width="8446.06" height="5630.7" />
      </defs>
      <clipPath id="SVGID_36_">
        <use xlink:href="#SVGID_35_" style="overflow:visible;" />
      </clipPath>
      <rect x="-17.39" y="-23.16" class="st18" width="337.58" height="246.34" />
    </g>
  </g>
</svg>
