<?xml version="1.0" encoding="utf-8"?>
<!-- Generator: Adobe Illustrator 23.0.4, SVG Export Plug-In . SVG Version: 6.00 Build 0)  -->
<svg version="1.1" id="Layer_1" xmlns="http://www.w3.org/2000/svg" xmlns:xlink="http://www.w3.org/1999/xlink" x="0px"
  y="0px" viewBox="0 0 300 200" style="enable-background:new 0 0 300 200;" xml:space="preserve">
  <style type="text/css">
    .st15 {
      clip-path: url(#SVGID_30_);
      fill: #00d68f
    }
  </style>
  <g>
    <defs>
      <path id="SVGID_29_" d="M234.91,97.94c-2.85,0-4.91,3.27-4.91,8.01c0,3.16,1.03,4.74,3.2,4.74c2.97,0,5.14-3.27,5.14-8.12
			C238.33,99.52,237.08,97.94,234.91,97.94z M247.58,86.66l-4.91,29.57h-6.05l0.34-2.14c-1.83,1.81-3.54,2.6-5.93,2.6
			c-4.68,0-7.76-3.95-7.76-9.93c0-8.01,4.79-14.78,10.5-14.78c2.4,0,4.34,1.02,6.05,3.27l1.37-8.58L247.58,86.66L247.58,86.66z
			 M222.7,99.07c-3.65-0.34-4.11,2.48-6.51,17.15h-6.39l0.34-1.58c1.37-7.45,2.51-15.01,3.31-22.46h5.93c0,1.24-0.23,2.48-0.46,3.72
			c2.05-2.93,3.54-4.4,6.16-3.84C224.29,93.43,223.27,96.02,222.7,99.07z M200.55,105.5c-3.65,0-5.48,1.24-5.48,3.61
			c0,1.47,0.91,2.48,2.28,2.48c2.62,0,4.45-2.48,4.57-6.09H200.55z M208.54,103.47c-0.57,3.5-1.71,10.95-1.94,12.75h-5.25l0.11-2.48
			c-1.6,2.03-3.77,2.93-6.73,2.93c-3.54,0-5.82-2.71-5.82-6.54c0-5.87,4.11-9.25,11.19-9.25c0.8,0,1.71,0,2.62,0.11
			c0.23-0.79,0.23-1.13,0.23-1.47c0-1.69-1.14-2.26-4.11-2.26c-3.08,0-5.71,0.79-6.73,1.13c0,0,0-0.45,0.91-5.42
			c3.2-0.9,5.25-1.24,7.65-1.24c5.48,0,8.33,2.37,8.33,7C209,99.97,208.89,101.44,208.54,103.47z M189.48,93.88
			c-2.28-1.13-3.88-1.58-5.71-1.58c-4.79,0-8.1,4.63-8.1,11.06c0,4.51,2.17,7.22,5.94,7.22c1.6,0,3.31-0.45,5.48-1.47l-1.14,6.66
			c-2.4,0.68-3.88,0.9-5.71,0.9c-6.85,0-11.19-4.85-11.19-12.75c0-10.61,5.94-17.94,14.5-17.94c2.74,0,6.05,1.13,6.96,1.47
			L189.48,93.88z M166.65,99.07c-3.54-0.34-4.11,2.48-6.39,17.15h-6.39l0.34-1.58c1.26-7.45,2.51-15.01,3.31-22.46h5.82
			c0.11,1.24-0.23,2.48-0.34,3.72c1.94-2.93,3.42-4.4,6.16-3.84C168.37,93.43,167.34,96.02,166.65,99.07z M147.36,101.44
			c0-0.45,0.68-4.29-2.97-4.29c-2.06,0-3.54,1.58-4.11,4.29H147.36z M152.5,106.29h-12.67c-0.46,3.5,1.83,4.96,5.48,4.96
			c2.28,0,4.34-0.45,6.62-1.58l-1.03,6.09c-2.17,0.56-4.34,0.9-6.51,0.9c-7.19,0-10.84-3.72-10.84-10.72
			c0-8.24,4.68-14.22,11.07-14.22c5.25,0,8.67,3.39,8.67,8.69C153.3,102.12,153.07,103.92,152.5,106.29z M133.33,92.19l-0.8,5.87
			h-3.31c-0.68,4.51-1.83,10.27-1.83,10.95c0,1.24,0.68,1.81,2.17,1.81c0.62,0,1.23-0.07,1.83-0.23l-0.91,5.3
			c-1.71,0.56-3.08,0.79-4.57,0.79c-3.31,0-5.02-1.81-5.14-5.3c0-1.02,0.46-3.84,0.91-6.32c0,0,0.34-2.26,2.85-16.48h6.28
			l-0.69,3.61L133.33,92.19L133.33,92.19z M119.17,97.72c-1.71-0.23-3.42-0.34-4.68-0.34c-2.06,0-3.08,0.68-3.08,1.92
			c0,1.13,0.23,1.47,2.97,2.6c3.2,1.47,4.57,3.5,4.57,6.77c0,5.53-3.2,8.12-9.93,8.01c-3.88,0-5.25-0.34-6.62-0.68
			c0,0,0-0.23,0.8-5.53c2.05,0.56,3.88,0.9,5.82,0.9c2.51,0,3.65-0.68,3.65-2.14c0-1.13-0.46-1.47-2.97-2.71
			c-3.42-1.58-4.91-3.61-4.91-6.66c0-4.51,2.4-8.12,9.59-8.12c1.48,0,3.99,0.11,5.71,0.45L119.17,97.72z M93.72,105.5
			c-3.54,0-5.36,1.24-5.36,3.61c0,1.47,0.8,2.48,2.28,2.48c2.63,0,4.45-2.48,4.57-6.09H93.72z M101.82,103.47
			c-0.57,3.5-1.83,10.95-1.94,12.75h-5.36l0.11-2.48c-1.6,2.03-3.77,2.93-6.62,2.93c-3.54,0-5.94-2.71-5.94-6.54
			c0-5.87,4.22-9.25,11.3-9.25c0.69,0,1.6,0,2.63,0.11c0.11-0.79,0.23-1.13,0.23-1.47c0-1.69-1.14-2.26-4.11-2.26
			c-3.2,0-5.71,0.79-6.73,1.13c0,0,0-0.45,0.8-5.42c3.2-0.9,5.36-1.24,7.65-1.24c5.59,0,8.45,2.37,8.45,7
			C102.28,99.97,102.05,101.44,101.82,103.47z M83.33,86.66l-5.02,29.57h-6.39l3.65-22.68l-8.1,22.68h-4.45l-0.46-22.57l-3.88,22.57
			h-6.05l5.02-29.57h9.25l0.23,18.39l6.28-18.39H83.33z M191.76,39.94c-14.04,0-26.94,4.63-37.44,12.41
			c9.36,8.46,16.21,19.52,19.52,32.05h-5.71c-3.31-11.17-9.59-20.99-18.03-28.55c-8.45,7.56-14.72,17.38-18.03,28.55h-5.71
			c3.31-12.53,10.16-23.59,19.52-32.05c-10.5-7.79-23.4-12.41-37.44-12.41c-34.36,0-62.09,27.53-62.09,61.39
			s27.74,61.39,62.09,61.39c14.04,0,26.94-4.63,37.44-12.41c-8.79-8.01-15.41-18.28-18.83-29.79h5.71
			c3.42,10.16,9.47,19.3,17.35,26.29c7.88-7,13.92-16.14,17.35-26.29h5.71c-3.42,11.51-10.04,21.78-18.83,29.79
			c10.5,7.79,23.4,12.41,37.44,12.41c34.36,0,62.09-27.53,62.09-61.39S226.12,39.94,191.76,39.94z M281.59,173.54
			c0,7.9-6.62,14.44-14.61,14.44H33.23c-7.99,0-14.61-6.54-14.61-14.44V29.11c0-7.9,6.62-14.44,14.61-14.44h233.76
			c7.99,0,14.61,6.54,14.61,14.44V173.54z" />
    </defs>
    <clipPath id="SVGID_30_">
      <use xlink:href="#SVGID_29_" style="overflow:visible;" />
    </clipPath>
    <g class="st15">
      <rect x="-16.05" y="-20" class="st16" width="332.31" height="242.66" />
    </g>
  </g>
</svg>
