<?xml version="1.0" encoding="utf-8"?>
<!-- Generator: Adobe Illustrator 23.0.4, SVG Export Plug-In . SVG Version: 6.00 Build 0)  -->
<svg version="1.1" id="Layer_1" xmlns="http://www.w3.org/2000/svg" xmlns:xlink="http://www.w3.org/1999/xlink" x="0px"
  y="0px" viewBox="0 0 300 200" style="enable-background:new 0 0 300 200;" xml:space="preserve">
  <style type="text/css">
    .st3 {
      clip-path: url(#SVGID_6_);
    }

    .st4 {
      clip-path: url(#SVGID_8_);
    }

    .st5 {
      clip-path: url(#SVGID_10_);
    }

    .st6 {
      clip-path: url(#SVGID_12_);
    }

    .st7 {
      clip-path: url(#SVGID_14_);
    }

    .st8 {
      clip-path: url(#SVGID_16_);
    }

    .st9 {
      clip-path: url(#SVGID_18_);
    }

    .st10 {
      clip-path: url(#SVGID_20_);
    }

    .st11 {
      clip-path: url(#SVGID_22_);
    }

    .st12 {
      clip-path: url(#SVGID_24_);
    }

    .st13 {
      clip-path: url(#SVGID_26_);
    }

    .st14 {
      clip-path: url(#SVGID_28_);
    }
  </style>

  <g>
    <defs>
      <path id="SVGID_5_" d="M273.6,165.7H27.28V32.95H273.6V165.7z M281.59,12.66H19.29C12.5,12.66,7,18.17,7,24.96V173.7
			c0,6.79,5.5,12.29,12.29,12.29h262.3c6.79,0,12.29-5.5,12.29-12.29V24.96C293.88,18.17,288.38,12.66,281.59,12.66z" />
    </defs>
    <clipPath id="SVGID_6_">
      <use xlink:href="#SVGID_5_" style="overflow:visible;" />
    </clipPath>
    <g class="st3">
      <defs>
        <rect id="SVGID_7_" x="-5615.67" y="-2122.71" width="8319.62" height="5546.41" />
      </defs>
      <clipPath id="SVGID_8_">
        <use xlink:href="#SVGID_7_" style="overflow:visible;" />
      </clipPath>
      <rect x="-27.67" y="-22" class="st4" width="356.21" height="242.66" />
    </g>
  </g>
  <g>
    <defs>
      <path id="SVGID_9_" d="M226.74,88.55l1.15,5.17l3.95,17.26h-14.17h0L226.74,88.55z M192.59,131.37c0.35,0.52,0.95,0.83,1.6,0.83
			h13.67c0.79,0,1.5-0.47,1.78-1.17c1.68-4.24,2.76-6.93,3.11-7.81c0.91,0,5.11,0,9.61,0.01h0.25c5.17,0.01,10.67,0.01,11.99,0.01
			c0.39,1.59,1.35,5.79,1.75,7.52c0.19,0.84,0.97,1.43,1.86,1.43h11.92c0.58,0,1.12-0.25,1.49-0.68c0.36-0.43,0.5-0.99,0.38-1.53
			l-12.97-56.13c-0.19-0.83-0.97-1.43-1.86-1.43h-11.65c-4.66,0-7.33,1.48-8.94,4.96l-24.15,52.25
			C192.18,130.21,192.24,130.86,192.59,131.37z" />
    </defs>
    <clipPath id="SVGID_10_">
      <use xlink:href="#SVGID_9_" style="overflow:visible;" />
    </clipPath>
    <g class="st5">
      <defs>
        <rect id="SVGID_11_" x="-5615.67" y="-2122.71" width="8319.62" height="5546.41" />
      </defs>
      <clipPath id="SVGID_12_">
        <use xlink:href="#SVGID_11_" style="overflow:visible;" />
      </clipPath>
      <rect x="157.61" y="37.77" class="st6" width="129.1" height="129.1" />
    </g>
  </g>
  <g>
    <defs>
      <path id="SVGID_13_" d="M145.87,129.68c4.95,1.51,11.87,2.46,18.49,2.52c0.01,0,0.01,0,0.02,0c19.01,0,31.37-7.77,31.51-19.79
			c0.07-6.61-4.76-11.6-15.15-15.7c-6.36-2.69-10.26-4.48-10.22-7.22c0-2.46,3.56-4.96,10.41-4.96c0.17,0,0.36,0,0.55,0
			c5.69,0,9.7,1.12,12.23,1.97c0.59,0.2,1.24,0.15,1.79-0.12c0.55-0.27,0.92-0.74,1.03-1.28l1.7-8.7c0.17-0.9-0.43-1.77-1.43-2.05
			c-3.12-0.87-8.17-1.91-14.49-1.91c-17.91,0-30.49,7.86-30.59,19.1c-0.11,8.33,8.99,12.97,15.86,15.74
			c7.04,2.83,9.41,4.64,9.37,7.18c-0.05,3.88-5.64,5.65-10.82,5.65c-7.37,0-11.34-0.97-16.96-3.01c-0.59-0.21-1.26-0.18-1.82,0.09
			c-0.56,0.27-0.95,0.74-1.05,1.29l-1.8,9.16C144.32,128.52,144.9,129.38,145.87,129.68z" />
    </defs>
    <clipPath id="SVGID_14_">
      <use xlink:href="#SVGID_13_" style="overflow:visible;" />
    </clipPath>
    <g class="st7">
      <defs>
        <rect id="SVGID_15_" x="-5615.67" y="-2122.71" width="8319.62" height="5546.41" />
      </defs>
      <clipPath id="SVGID_16_">
        <use xlink:href="#SVGID_15_" style="overflow:visible;" />
      </clipPath>
      <rect x="109.8" y="37.77" class="st8" width="123.12" height="129.1" />
    </g>
  </g>
  <g>
    <defs>
      <path id="SVGID_17_" d="M50.07,70.39c10.69,4.18,19.44,10.81,25.3,19.17c0.36,0.52,0.92,0.8,1.49,0.8c0.26,0,0.53-0.06,0.78-0.18
			c0.79-0.39,1.23-1.33,1.05-2.26l-3.11-15.97c-0.01-0.03-0.01-0.07-0.02-0.1c-1.12-4.56-4.66-5.24-7.23-5.35c-0.02,0-0.05,0-0.07,0
			l-17.54-0.03c0,0,0,0,0,0c-0.91,0-1.68,0.71-1.84,1.68C48.71,69.1,49.22,70.05,50.07,70.39z" />
    </defs>
    <clipPath id="SVGID_18_">
      <use xlink:href="#SVGID_17_" style="overflow:visible;" />
    </clipPath>
    <g class="st9">
      <defs>
        <rect id="SVGID_19_" x="-5615.67" y="-2122.71" width="8319.62" height="5546.41" />
      </defs>
      <clipPath id="SVGID_20_">
        <use xlink:href="#SVGID_19_" style="overflow:visible;" />
      </clipPath>
      <rect x="14.17" y="31.79" class="st10" width="99.21" height="93.24" />
    </g>
  </g>
  <g>
    <defs>
      <path id="SVGID_21_" d="M114.98,131.55c0.32,0.41,0.79,0.65,1.29,0.65h11.67c0.82,0,1.52-0.64,1.66-1.51l8.87-56.13
			c0.08-0.53-0.05-1.07-0.37-1.48c-0.32-0.41-0.79-0.65-1.29-0.65h-11.68c-0.82,0-1.52,0.64-1.66,1.51l-8.86,56.13
			C114.52,130.6,114.66,131.14,114.98,131.55z" />
    </defs>
    <clipPath id="SVGID_22_">
      <use xlink:href="#SVGID_21_" style="overflow:visible;" />
    </clipPath>
    <g class="st11">
      <defs>
        <rect id="SVGID_23_" x="-5615.67" y="-2122.71" width="8319.62" height="5546.41" />
      </defs>
      <clipPath id="SVGID_24_">
        <use xlink:href="#SVGID_23_" style="overflow:visible;" />
      </clipPath>
      <rect x="79.92" y="37.77" class="st12" width="93.24" height="129.1" />
    </g>
  </g>
  <g>
    <defs>
      <path id="SVGID_25_" d="M63.96,85.33c-0.68-0.48-1.61-0.5-2.32-0.06c-0.7,0.45-1.02,1.26-0.78,2.02l13.81,43.6
			c0.25,0.78,1.02,1.31,1.89,1.31c0,0,0,0,0,0l15.91-0.02c0.79,0,1.5-0.43,1.81-1.1l26.11-56.1c0.26-0.56,0.2-1.21-0.17-1.72
			c-0.36-0.51-0.98-0.82-1.65-0.82h0l-14.36,0.01c-0.81,0-1.54,0.46-1.84,1.16l-16.8,39.66l-1.81-6.04
			c-0.02-0.08-0.05-0.16-0.09-0.24C81.04,101.29,73.91,92.39,63.96,85.33z" />
    </defs>
    <clipPath id="SVGID_26_">
      <use xlink:href="#SVGID_25_" style="overflow:visible;" />
    </clipPath>
    <g class="st13">
      <defs>
        <rect id="SVGID_27_" x="-5615.67" y="-2122.71" width="8319.62" height="5546.41" />
      </defs>
      <clipPath id="SVGID_28_">
        <use xlink:href="#SVGID_27_" style="overflow:visible;" />
      </clipPath>
      <rect x="26.13" y="37.77" class="st14" width="129.1" height="129.1" />
    </g>
  </g>
</svg>
